<?xml version="1.0" standalone="no"?>
<!DOCTYPE svg PUBLIC "-//W3C//DTD SVG 20010904//EN"
 "http://www.w3.org/TR/2001/REC-SVG-20010904/DTD/svg10.dtd">
<svg version="1.0" xmlns="http://www.w3.org/2000/svg"
 width="1126.000000pt" height="528.000000pt" viewBox="0 0 1126.000000 528.000000"
 preserveAspectRatio="xMidYMid meet">

<g transform="translate(0.000000,528.000000) scale(0.100000,-0.100000)"
fill="#000000" stroke="none">
<path d="M5130 5060 c0 -6 -67 -10 -180 -10 -99 0 -180 -4 -180 -9 0 -4 -51
-9 -112 -10 -62 -1 -117 -6 -122 -11 -6 -6 -54 -10 -108 -10 -54 0 -98 -4 -98
-9 0 -5 -35 -9 -77 -10 -42 -1 -79 -5 -82 -9 -4 -5 -30 -9 -60 -10 -30 0 -57
-5 -60 -10 -3 -5 -33 -10 -66 -11 -33 0 -76 -5 -95 -11 -19 -5 -52 -10 -72
-10 -21 0 -38 -4 -38 -10 0 -6 -27 -10 -60 -10 -33 0 -60 -4 -60 -10 0 -5 -25
-10 -55 -10 -30 0 -55 -4 -55 -10 0 -5 -22 -10 -50 -10 -27 0 -50 -4 -50 -10
0 -5 -25 -10 -55 -10 -30 0 -55 -4 -55 -10 0 -5 -15 -10 -34 -10 -19 0 -37 -4
-40 -9 -3 -4 -27 -11 -53 -14 -27 -4 -68 -11 -93 -17 -25 -6 -60 -14 -77 -17
-18 -3 -33 -9 -33 -14 0 -5 -18 -9 -40 -9 -22 0 -40 -4 -40 -10 0 -5 -18 -10
-39 -10 -22 0 -43 -4 -46 -10 -3 -5 -19 -10 -36 -10 -16 0 -29 -4 -29 -10 0
-5 -13 -10 -30 -10 -16 0 -30 -4 -30 -10 0 -5 -13 -10 -30 -10 -16 0 -30 -4
-30 -10 0 -5 -15 -10 -34 -10 -19 0 -38 -4 -41 -10 -3 -5 -19 -10 -36 -10 -16
0 -29 -4 -29 -10 0 -5 -13 -10 -30 -10 -16 0 -30 -4 -30 -10 0 -5 -13 -10 -30
-10 -16 0 -30 -4 -30 -10 0 -5 -13 -10 -30 -10 -16 0 -30 -4 -30 -10 0 -5 -11
-10 -25 -10 -14 0 -25 -4 -25 -10 0 -5 -11 -10 -25 -10 -14 0 -25 -4 -25 -10
0 -5 -13 -10 -30 -10 -16 0 -30 -4 -30 -10 0 -5 -9 -10 -20 -10 -20 0 -29 -4
-77 -28 -13 -7 -32 -12 -43 -12 -11 0 -20 -4 -20 -10 0 -5 -11 -10 -25 -10
-14 0 -25 -4 -25 -10 0 -5 -7 -10 -15 -10 -8 0 -15 -4 -15 -8 0 -5 -23 -15
-50 -22 -28 -7 -50 -17 -50 -22 0 -4 -9 -8 -20 -8 -11 0 -20 -4 -20 -10 0 -5
-11 -10 -25 -10 -14 0 -25 -4 -25 -10 0 -5 -9 -10 -20 -10 -11 0 -20 -4 -20
-10 0 -5 -7 -10 -15 -10 -8 0 -15 -4 -15 -10 0 -5 -11 -10 -25 -10 -14 0 -25
-4 -25 -10 0 -5 -9 -10 -20 -10 -11 0 -20 -4 -20 -8 0 -5 -16 -14 -35 -22 -19
-8 -35 -17 -35 -22 0 -4 -11 -8 -25 -8 -14 0 -25 -4 -25 -10 0 -5 -7 -10 -15
-10 -8 0 -15 -4 -15 -10 0 -5 -7 -10 -15 -10 -8 0 -15 -4 -15 -10 0 -5 -7 -10
-15 -10 -8 0 -15 -4 -15 -10 0 -5 -9 -10 -20 -10 -11 0 -20 -4 -20 -10 0 -5
-9 -10 -20 -10 -11 0 -20 -4 -20 -10 0 -5 -7 -10 -15 -10 -8 0 -15 -4 -15 -10
0 -5 -7 -10 -15 -10 -8 0 -15 -4 -15 -10 0 -5 -8 -10 -18 -10 -10 0 -24 -9
-32 -20 -8 -11 -20 -20 -27 -20 -7 0 -13 -4 -13 -10 0 -5 -7 -10 -15 -10 -8 0
-15 -4 -15 -10 0 -5 -7 -10 -15 -10 -8 0 -15 -4 -15 -10 0 -5 -7 -10 -15 -10
-8 0 -15 -4 -15 -10 0 -5 -5 -10 -11 -10 -6 0 -24 -13 -39 -30 -15 -16 -33
-30 -39 -30 -6 0 -11 -4 -11 -10 0 -5 -6 -10 -14 -10 -8 0 -18 -9 -21 -20 -3
-11 -13 -20 -22 -20 -8 0 -28 -13 -43 -30 -15 -16 -31 -30 -34 -30 -4 0 -50
-45 -104 -100 -124 -127 -137 -142 -152 -170 -7 -13 -26 -37 -44 -54 -17 -18
-40 -51 -50 -74 -10 -23 -22 -42 -26 -42 -4 0 -13 -13 -20 -30 -7 -16 -16 -30
-21 -30 -5 0 -9 -9 -9 -20 0 -11 -4 -20 -10 -20 -5 0 -10 -9 -10 -20 0 -11 -4
-20 -8 -20 -4 0 -14 -21 -21 -47 -8 -27 -17 -50 -20 -53 -10 -8 -31 -75 -31
-98 0 -12 -4 -22 -9 -22 -11 0 -21 -54 -28 -147 -2 -40 -9 -73 -15 -73 -9 0
-8 -40 8 -242 3 -43 10 -78 15 -78 5 0 9 -10 9 -23 0 -12 9 -47 20 -77 11 -30
20 -65 20 -77 0 -13 3 -23 8 -23 4 0 12 -15 18 -32 23 -67 39 -103 51 -116 6
-6 15 -21 18 -32 3 -11 10 -20 14 -20 5 0 14 -13 21 -30 7 -16 16 -30 21 -30
5 0 9 -7 9 -16 0 -8 6 -21 13 -28 6 -8 19 -24 27 -36 8 -13 34 -42 58 -66 23
-24 42 -48 42 -54 0 -11 205 -220 216 -220 3 0 19 -13 34 -30 15 -16 32 -30
37 -30 5 0 15 -9 23 -20 8 -11 19 -20 25 -20 6 0 17 -9 25 -20 8 -11 20 -20
27 -20 7 0 13 -4 13 -10 0 -5 7 -10 15 -10 8 0 15 -4 15 -10 0 -5 7 -10 15
-10 8 0 15 -4 15 -10 0 -5 7 -10 15 -10 8 0 15 -4 15 -10 0 -5 6 -10 13 -10 7
0 19 -9 27 -20 8 -11 20 -20 27 -20 7 0 13 -4 13 -10 0 -5 7 -10 15 -10 8 0
15 -4 15 -10 0 -5 9 -10 20 -10 11 0 20 -4 20 -10 0 -5 7 -10 15 -10 8 0 15
-4 15 -10 0 -5 7 -10 15 -10 8 0 15 -4 15 -10 0 -5 7 -10 15 -10 8 0 15 -4 15
-10 0 -5 7 -10 15 -10 8 0 15 -4 15 -10 0 -5 9 -10 20 -10 11 0 20 -4 20 -10
0 -5 7 -10 15 -10 8 0 15 -4 15 -10 0 -5 9 -10 20 -10 11 0 20 -4 20 -10 0 -5
9 -10 20 -10 11 0 20 -4 20 -10 0 -5 9 -10 20 -10 11 0 20 -4 20 -10 0 -5 7
-10 15 -10 8 0 15 -4 15 -10 0 -5 9 -10 19 -10 11 0 23 -5 26 -10 3 -6 15 -10
26 -10 10 0 19 -4 19 -10 0 -5 9 -10 20 -10 11 0 20 -4 20 -10 0 -5 9 -10 20
-10 11 0 20 -4 20 -10 0 -5 11 -10 25 -10 14 0 25 -4 25 -10 0 -5 9 -10 20
-10 11 0 20 -4 20 -10 0 -5 9 -10 20 -10 11 0 20 -4 20 -10 0 -5 9 -10 20 -10
11 0 28 -4 38 -9 9 -5 32 -16 49 -23 18 -7 33 -16 33 -20 0 -5 14 -8 30 -8 17
0 30 -4 30 -10 0 -5 7 -10 15 -10 8 0 23 -4 33 -9 9 -5 38 -15 65 -23 26 -7
47 -16 47 -20 0 -4 9 -8 20 -8 11 0 20 -4 20 -10 0 -5 9 -10 20 -10 28 0 100
-23 100 -32 0 -5 16 -8 35 -8 19 0 35 -4 35 -10 0 -5 13 -10 28 -10 15 0 32
-4 38 -9 12 -12 138 -51 164 -51 11 0 20 -4 20 -10 0 -5 16 -10 35 -10 19 0
35 -4 35 -9 0 -5 17 -11 38 -14 70 -11 107 -18 127 -27 22 -9 60 -18 115 -27
19 -3 37 -9 40 -12 9 -12 87 -31 129 -31 22 0 41 -4 41 -10 0 -5 20 -10 44
-10 25 0 48 -5 51 -10 3 -5 26 -10 50 -10 24 0 47 -4 50 -10 3 -5 28 -10 56
-10 27 0 49 -4 49 -10 0 -6 27 -10 60 -10 33 0 60 -4 60 -10 0 -6 28 -10 65
-10 37 0 65 -4 65 -10 0 -5 20 -10 45 -10 25 0 45 -4 45 -9 0 -10 54 -17 208
-27 56 -4 102 -11 102 -15 0 -5 40 -9 89 -9 50 0 93 -4 96 -10 3 -6 50 -10
106 -10 59 0 99 -4 99 -10 0 -6 53 -10 140 -10 87 0 140 -4 140 -10 0 -6 61
-10 164 -10 99 0 167 -4 171 -10 8 -14 842 -14 850 0 4 6 68 10 160 10 92 0
156 4 160 10 4 6 62 10 140 10 78 0 136 4 140 10 3 6 52 10 111 10 63 0 104 4
104 10 0 6 36 10 89 10 50 0 93 4 96 10 3 5 32 10 63 10 72 0 224 20 236 31 6
5 29 9 52 9 24 0 46 5 49 10 3 6 30 10 60 10 30 0 57 5 60 10 3 6 30 10 60 10
30 0 57 5 60 10 3 6 31 10 61 10 30 0 54 5 54 10 0 6 23 10 50 10 28 0 50 5
50 10 0 6 18 10 39 10 22 0 43 5 46 10 3 6 20 10 38 10 42 0 137 22 137 32 0
5 18 8 40 8 22 0 40 5 40 10 0 6 18 10 40 10 22 0 40 5 40 10 0 6 18 10 40 10
22 0 40 5 40 10 0 6 15 10 34 10 19 0 38 4 41 10 3 5 16 10 27 10 22 0 81 16
109 30 9 5 41 14 72 21 32 8 57 17 57 21 0 5 11 8 24 8 14 0 28 4 31 10 3 5
17 10 31 10 13 0 33 4 44 10 11 5 29 14 40 20 11 5 29 10 40 10 11 0 28 4 38
9 79 40 107 51 128 51 13 0 24 5 24 10 0 6 7 10 15 10 8 0 24 5 35 10 11 6 29
14 40 20 11 5 31 10 45 10 14 0 25 3 25 8 0 10 50 32 72 32 10 0 18 5 18 10 0
6 9 10 20 10 11 0 20 4 20 9 0 5 20 15 45 22 25 7 45 17 45 21 0 4 9 8 20 8
11 0 20 5 20 10 0 6 11 10 25 10 14 0 25 5 25 10 0 6 9 10 20 10 11 0 20 5 20
10 0 6 7 10 15 10 8 0 15 5 15 10 0 6 9 10 20 10 11 0 20 5 20 10 0 6 9 10 20
10 11 0 20 5 20 10 0 6 9 10 20 10 11 0 20 5 20 10 0 6 9 10 20 10 11 0 20 5
20 10 0 6 7 10 15 10 8 0 15 5 15 10 0 6 7 10 15 10 8 0 15 5 15 10 0 6 9 10
20 10 11 0 20 5 20 10 0 6 7 10 15 10 8 0 15 5 15 10 0 6 7 10 15 10 8 0 15 5
15 10 0 6 9 10 20 10 11 0 20 5 20 10 0 6 7 10 15 10 8 0 15 5 15 10 0 6 7 10
15 10 8 0 15 5 15 10 0 6 7 10 15 10 8 0 15 5 15 10 0 6 6 10 13 10 7 0 19 9
27 20 8 11 22 20 32 20 10 0 18 5 18 10 0 6 6 10 13 10 7 0 18 9 25 20 7 11
18 20 25 20 7 0 19 9 27 20 8 11 19 20 25 20 6 0 17 9 25 20 8 11 18 20 23 20
5 0 22 14 37 30 15 17 31 30 34 30 4 0 38 32 76 70 38 39 74 70 80 70 5 0 10
4 10 9 0 5 12 23 28 40 27 30 55 64 92 111 11 14 24 30 30 37 5 7 15 24 22 38
6 14 14 25 18 25 4 0 13 14 20 30 7 17 16 30 21 30 5 0 9 8 9 18 0 10 9 24 20
32 11 8 20 22 20 32 0 10 3 18 8 18 4 0 12 15 19 33 31 88 73 217 83 257 6 25
16 59 21 76 12 42 12 374 -1 374 -5 0 -10 18 -10 40 0 22 -4 40 -10 40 -5 0
-10 14 -10 30 0 36 -22 110 -32 110 -5 0 -8 14 -8 30 0 17 -4 30 -9 30 -5 0
-11 13 -14 29 -3 16 -13 36 -22 44 -8 9 -15 23 -15 31 0 9 -4 16 -8 16 -5 0
-19 23 -32 50 -13 28 -27 50 -30 50 -4 0 -13 14 -20 30 -7 17 -16 30 -21 30
-4 0 -10 9 -14 19 -3 11 -18 34 -33 50 -15 17 -38 44 -52 61 -43 54 -199 210
-209 210 -5 0 -13 9 -16 20 -3 11 -12 20 -18 20 -7 0 -19 9 -27 20 -8 11 -19
20 -25 20 -6 0 -17 9 -25 20 -8 11 -20 20 -27 20 -7 0 -13 5 -13 10 0 6 -5 10
-11 10 -6 0 -24 14 -39 30 -15 17 -33 30 -39 30 -6 0 -11 5 -11 10 0 6 -7 10
-15 10 -8 0 -15 5 -15 10 0 6 -7 10 -15 10 -8 0 -15 5 -15 10 0 6 -7 10 -15
10 -8 0 -15 5 -15 10 0 6 -6 10 -13 10 -7 0 -19 9 -27 20 -8 11 -22 20 -32 20
-10 0 -18 5 -18 10 0 6 -7 10 -15 10 -8 0 -15 5 -15 10 0 6 -7 10 -15 10 -8 0
-15 5 -15 10 0 6 -9 10 -20 10 -11 0 -20 5 -20 10 0 6 -9 10 -19 10 -11 0 -21
4 -23 8 -6 14 -96 72 -112 72 -9 0 -16 5 -16 10 0 6 -9 10 -20 10 -11 0 -20 5
-20 10 0 6 -9 10 -20 10 -11 0 -20 5 -20 10 0 6 -9 10 -20 10 -11 0 -20 5 -20
10 0 6 -9 10 -20 10 -12 0 -30 9 -42 20 -12 11 -30 20 -40 20 -10 0 -18 5 -18
10 0 6 -9 10 -19 10 -11 0 -23 5 -26 10 -3 6 -15 10 -26 10 -10 0 -19 3 -19 8
0 8 -48 32 -65 32 -17 0 -65 24 -65 33 0 4 -11 7 -25 7 -14 0 -25 5 -25 10 0
6 -7 10 -15 10 -8 0 -24 5 -35 10 -11 6 -29 15 -40 20 -11 6 -29 10 -39 10
-11 0 -23 5 -26 10 -3 6 -17 10 -30 10 -13 0 -27 5 -30 10 -3 6 -17 10 -31 10
-13 0 -24 5 -24 10 0 6 -9 10 -19 10 -11 0 -23 5 -26 10 -3 6 -17 10 -30 10
-13 0 -27 5 -30 10 -3 6 -16 10 -29 10 -12 0 -26 4 -31 8 -6 5 -30 14 -55 21
-25 7 -53 17 -62 22 -10 5 -29 9 -42 9 -14 0 -28 5 -31 10 -3 6 -19 10 -35 10
-16 0 -32 5 -35 10 -3 6 -19 10 -36 10 -16 0 -29 4 -29 9 0 9 -32 17 -103 28
-20 3 -40 9 -43 14 -3 5 -23 9 -44 9 -21 0 -40 4 -42 8 -3 7 -97 31 -253 64
-27 6 -59 14 -70 19 -34 13 -238 49 -282 49 -24 0 -43 5 -43 10 0 6 -27 10
-60 10 -33 0 -60 4 -60 8 0 5 -44 14 -97 21 -54 7 -132 19 -173 27 -190 36
-705 84 -917 84 -95 0 -153 4 -153 10 0 7 -190 10 -550 10 -360 0 -550 -3
-550 -10z m1140 -150 c1699 -89 3165 -521 3990 -1176 109 -87 289 -268 362
-364 127 -168 217 -355 255 -530 28 -133 24 -345 -10 -473 -81 -306 -283 -590
-602 -847 -818 -656 -2258 -1085 -3975 -1181 -275 -16 -952 -16 -1230 0 -1863
104 -3409 605 -4156 1346 -536 531 -597 1123 -175 1685 77 102 245 270 369
369 553 437 1409 783 2442 985 483 95 1010 159 1515 185 236 12 991 12 1215 1z"/>
<path d="M5185 4804 c-33 -2 -141 -8 -240 -14 -2136 -124 -3927 -866 -4300
-1782 -98 -239 -107 -454 -29 -688 67 -200 164 -349 354 -541 219 -221 449
-382 805 -564 1874 -955 5221 -1045 7360 -198 907 359 1484 847 1622 1371 35
135 37 326 4 455 -85 332 -314 624 -707 905 -307 219 -776 446 -1244 601 -702
234 -1456 374 -2380 442 -139 10 -1120 20 -1245 13z m-1849 -598 c192 -51 275
-179 230 -356 -38 -146 -147 -251 -319 -305 -108 -34 -203 -42 -248 -21 -84
40 -98 156 -38 319 17 44 26 57 43 57 34 1 -43 39 -80 40 -66 0 -242 -77 -374
-165 -87 -59 -239 -201 -320 -300 -114 -140 -246 -364 -323 -550 -126 -303
-142 -600 -45 -833 88 -211 287 -410 514 -513 198 -90 433 -20 686 202 l46 41
41 -27 41 -27 -33 -46 c-49 -70 -183 -208 -257 -263 -86 -65 -195 -121 -311
-160 -85 -29 -108 -33 -244 -37 -109 -3 -169 0 -220 11 -278 59 -512 241 -640
497 -133 268 -159 567 -79 929 110 493 403 897 877 1206 232 151 561 287 759
315 77 11 228 4 294 -14z m1640 -293 c17 -12 45 -50 63 -83 30 -55 33 -69 29
-123 -5 -73 -26 -122 -74 -171 -46 -47 -85 -67 -149 -73 -130 -14 -249 113
-231 245 12 86 77 174 160 217 46 23 162 17 202 -12z m4126 -75 c167 -89 202
-138 138 -196 -41 -37 -248 -154 -389 -218 -108 -50 -121 -54 -191 -54 -80 0
-120 16 -120 48 0 56 110 224 225 343 145 152 180 160 337 77z m-2032 -219
c19 -6 39 -15 44 -20 5 -4 -23 -66 -63 -138 -39 -72 -71 -132 -71 -134 0 -3
69 -7 153 -10 262 -9 403 -77 473 -230 27 -58 29 -70 28 -182 -1 -99 -6 -135
-27 -207 -96 -317 -255 -534 -444 -609 -48 -19 -77 -23 -173 -23 -124 -1 -170
10 -282 65 -32 15 -59 25 -62 21 -2 -4 -21 -68 -42 -142 -21 -74 -110 -351
-198 -615 l-161 -480 -40 -3 c-46 -4 -212 14 -268 29 -72 19 -95 103 -61 220
9 30 38 110 66 178 27 68 103 282 168 475 111 330 332 962 399 1142 l30 82
-82 4 c-85 5 -157 29 -157 53 0 8 36 33 80 56 170 91 338 242 410 368 19 33
43 75 53 92 l18 32 87 -6 c48 -4 103 -12 122 -18z m-1349 -392 c106 -55 112
-57 135 -43 18 12 53 16 153 16 76 0 132 -4 136 -10 3 -6 -12 -60 -35 -122
-101 -277 -138 -465 -108 -553 12 -38 15 -40 63 -46 56 -7 85 -17 85 -30 0
-15 -69 -148 -107 -208 -46 -73 -139 -169 -185 -192 -51 -26 -117 -25 -159 4
-32 21 -92 92 -101 118 -3 8 -46 -3 -144 -36 -123 -43 -151 -49 -241 -53 -90
-4 -108 -2 -147 17 -84 41 -144 127 -172 248 -22 94 -21 333 1 411 49 168 204
381 342 469 94 60 143 73 265 70 l108 -2 111 -58z m2684 43 c43 -11 111 -38
152 -60 69 -38 75 -40 95 -25 17 11 51 15 144 15 67 0 129 -2 137 -5 11 -5 2
-41 -45 -178 -81 -236 -100 -314 -101 -413 0 -103 16 -134 69 -134 19 0 48 -7
64 -15 l30 -16 -36 -72 c-175 -348 -371 -444 -498 -243 -16 25 -31 46 -34 46
-3 0 -66 -21 -141 -47 -152 -52 -271 -67 -356 -43 -85 24 -168 121 -207 243
-26 79 -28 243 -4 339 60 254 225 491 397 573 123 58 208 67 334 35z m-4629
-10 c103 -26 253 -100 292 -144 17 -19 33 -32 36 -29 3 4 6 -3 6 -15 0 -12 6
-22 14 -22 9 0 18 -19 25 -50 19 -89 53 -137 90 -125 24 7 158 227 167 274 9
41 24 49 130 61 49 5 127 21 174 34 135 40 160 42 194 15 27 -21 28 -26 22
-75 -9 -82 -88 -346 -154 -516 -33 -84 -72 -191 -87 -238 -160 -492 -540
-1400 -586 -1400 -5 0 -9 -5 -9 -11 0 -22 -77 -126 -149 -202 -103 -107 -187
-150 -298 -149 -96 0 -188 28 -269 80 -167 108 -216 315 -123 512 47 101 82
136 148 151 114 26 251 -95 251 -222 0 -22 -7 -55 -15 -73 -28 -58 -107 -85
-151 -51 -30 22 -34 18 -34 -31 0 -103 89 -171 169 -130 69 36 135 139 210
327 165 417 511 1395 511 1444 0 12 -15 15 -63 15 l-63 0 -23 -72 c-13 -40
-35 -98 -49 -128 -14 -30 -26 -59 -26 -63 -1 -4 -7 -11 -14 -16 -7 -4 -12 -12
-11 -17 3 -20 -2 -28 -10 -16 -6 10 -19 -6 -45 -53 -57 -103 -114 -173 -179
-217 -218 -148 -511 -179 -716 -77 -107 54 -173 159 -193 310 -19 141 24 335
108 488 120 219 316 393 490 435 83 20 139 19 230 -4z m6375 0 c57 -16 102
-51 127 -100 21 -40 23 -56 20 -135 -4 -77 -10 -103 -42 -180 -111 -262 -136
-386 -86 -427 20 -16 33 -19 73 -14 51 7 117 -8 117 -25 0 -24 -59 -108 -115
-165 -39 -39 -84 -73 -130 -95 -62 -30 -78 -34 -150 -34 -87 1 -122 13 -166
62 -48 51 -62 92 -67 188 -6 127 12 189 113 390 47 94 89 190 94 214 13 62 -6
107 -56 127 -33 14 -40 14 -70 0 -93 -44 -162 -209 -306 -731 l-64 -230 -221
-3 -221 -2 135 402 c74 222 134 408 134 415 0 7 -22 22 -50 34 l-49 21 96 110
c152 173 184 188 337 156 108 -22 99 -23 276 18 67 15 222 17 271 4z"/>
<path d="M6957 3033 c-27 -29 -72 -115 -138 -265 -81 -184 -101 -321 -55 -375
21 -24 32 -28 78 -28 105 0 201 89 263 245 16 41 34 78 39 82 6 4 7 10 3 14
-4 4 0 15 8 24 22 24 48 157 40 206 -6 41 -25 78 -42 80 -4 0 -28 10 -53 22
-64 31 -110 29 -143 -5z"/>
<path d="M5503 3029 c-24 -12 -65 -45 -92 -75 -94 -103 -223 -399 -206 -474
19 -84 61 -120 142 -120 102 0 210 105 303 295 88 181 115 282 89 339 -25 54
-157 74 -236 35z m80 -313 c4 -10 1 -13 -9 -9 -7 3 -14 0 -14 -7 0 -15 -26
-41 -34 -33 -3 4 -6 0 -6 -7 0 -11 -3 -11 -12 -2 -9 9 -10 15 -2 20 6 4 16 17
23 30 13 25 46 30 54 8z"/>
<path d="M8330 3061 c-97 -30 -170 -111 -255 -283 -124 -252 -120 -382 13
-417 118 -32 254 76 357 284 92 185 119 322 75 377 -30 39 -126 58 -190 39z"/>
<path d="M3644 3011 c-54 -14 -123 -53 -179 -103 -143 -128 -244 -370 -215
-515 10 -47 20 -66 55 -99 80 -78 215 -98 321 -50 184 84 345 421 291 607 -18
60 -64 122 -107 144 -35 18 -124 27 -166 16z"/>
</g>
</svg>
